<?xml version="1.0" encoding="UTF-8"?>
<svg version="1.1" xmlns="http://www.w3.org/2000/svg" width="1024" height="1024">
<path d="M0 0 C337.92 0 675.84 0 1024 0 C1024 337.92 1024 675.84 1024 1024 C686.08 1024 348.16 1024 0 1024 C0 686.08 0 348.16 0 0 Z " fill="#424242" transform="translate(0,0)"/>
<path d="M0 0 C31.35 0 62.7 0 95 0 C95 203.94 95 407.88 95 618 C63.65 618 32.3 618 0 618 C0 414.06 0 210.12 0 0 Z " fill="#545454" transform="translate(187,179)"/>
<path d="M0 0 C163.35 0 326.7 0 495 0 C495 29.04 495 58.08 495 88 C331.65 88 168.3 88 0 88 C0 58.96 0 29.92 0 0 Z " fill="#545454" transform="translate(368,617)"/>
<path d="M0 0 C163.35 0 326.7 0 495 0 C495 29.04 495 58.08 495 88 C331.65 88 168.3 88 0 88 C0 58.96 0 29.92 0 0 Z " fill="#545454" transform="translate(368,438)"/>
<path d="M0 0 C163.35 0 326.7 0 495 0 C495 29.04 495 58.08 495 88 C331.65 88 168.3 88 0 88 C0 58.96 0 29.92 0 0 Z " fill="#545454" transform="translate(368,258)"/>
</svg>
